<mxfile host="debug996.com" modified="2025-04-08T09:05:53.178Z" agent="5.0 (Windows NT 10.0; Win64; x64) AppleWebKit/537.36 (KHTML, like Gecko) Chrome/135.0.0.0 Safari/537.36 Edg/135.0.0.0" etag="X_QEnehskxYYvB2z1T9E" version="15.0.3" type="device">
  <diagram id="gpjf6CDSj6PaLX6Wqlad" name="第 1 页">
    <mxGraphModel dx="677" dy="1780" grid="1" gridSize="10" guides="1" tooltips="1" connect="1" arrows="1" fold="1" page="1" pageScale="1" pageWidth="827" pageHeight="1169" math="0" shadow="0">
      <root>
        <mxCell id="0" />
        <mxCell id="1" parent="0" />
        <mxCell id="F_3" value="支持向量" style="rounded=0;whiteSpace=wrap;html=1;strokeWidth=2;" parent="1" vertex="1">
          <mxGeometry x="292" y="30" width="58" height="36" as="geometry" />
        </mxCell>
        <mxCell id="影响" value="影响" style="rhombus;whiteSpace=wrap;html=1;strokeWidth=2;" parent="1" vertex="1">
          <mxGeometry x="391.72" y="45.960007" width="72.179993" height="36" as="geometry" />
        </mxCell>
        <mxCell id="E0" style="strokeWidth=2;startArrow=none;startFill=0;endArrow=none;endFill=0;" parent="1" source="F_3" target="影响" edge="1">
          <mxGeometry relative="1" as="geometry" />
        </mxCell>
        <mxCell id="L0" value="" style="edgeLabel;html=1;align=center;verticalAlign=middle;resizable=0;points=[];" parent="E0" vertex="1" connectable="0">
          <mxGeometry relative="1" as="geometry">
            <mxPoint as="offset" />
          </mxGeometry>
        </mxCell>
        <mxCell id="F_1" value="数据点" style="rounded=0;whiteSpace=wrap;html=1;strokeWidth=2;" parent="1" vertex="1">
          <mxGeometry x="340.97" y="-107.27998" width="54" height="36" as="geometry" />
        </mxCell>
        <mxCell id="Y_6" value="特征向量" style="ellipse;whiteSpace=wrap;html=1;strokeWidth=2;" parent="1" vertex="1">
          <mxGeometry x="338.96002" y="-224.83998" width="80.019997" height="36" as="geometry" />
        </mxCell>
        <mxCell id="E1" style="strokeWidth=2;startArrow=none;startFill=0;endArrow=none;endFill=0;" parent="1" source="F_1" target="Y_6" edge="1">
          <mxGeometry relative="1" as="geometry" />
        </mxCell>
        <mxCell id="L1" value="" style="edgeLabel;html=1;align=center;verticalAlign=middle;resizable=0;points=[];" parent="E1" vertex="1" connectable="0">
          <mxGeometry relative="1" as="geometry">
            <mxPoint as="offset" />
          </mxGeometry>
        </mxCell>
        <mxCell id="Y_7" value="类别标签" style="ellipse;whiteSpace=wrap;html=1;strokeWidth=2;" parent="1" vertex="1">
          <mxGeometry x="212" y="-85.460007" width="80.019997" height="36" as="geometry" />
        </mxCell>
        <mxCell id="E2" style="strokeWidth=2;startArrow=none;startFill=0;endArrow=none;endFill=0;" parent="1" source="F_1" target="Y_7" edge="1">
          <mxGeometry relative="1" as="geometry" />
        </mxCell>
        <mxCell id="L2" value="" style="edgeLabel;html=1;align=center;verticalAlign=middle;resizable=0;points=[];" parent="E2" vertex="1" connectable="0">
          <mxGeometry relative="1" as="geometry">
            <mxPoint as="offset" />
          </mxGeometry>
        </mxCell>
        <mxCell id="映射" value="映射" style="rhombus;whiteSpace=wrap;html=1;strokeWidth=2;" parent="1" vertex="1">
          <mxGeometry x="417.98999" y="-28.399994" width="72.199982" height="36" as="geometry" />
        </mxCell>
        <mxCell id="E3" style="strokeWidth=2;startArrow=none;startFill=0;endArrow=none;endFill=0;" parent="1" source="F_1" target="映射" edge="1">
          <mxGeometry relative="1" as="geometry" />
        </mxCell>
        <mxCell id="L3" value="" style="edgeLabel;html=1;align=center;verticalAlign=middle;resizable=0;points=[];" parent="E3" vertex="1" connectable="0">
          <mxGeometry relative="1" as="geometry">
            <mxPoint as="offset" />
          </mxGeometry>
        </mxCell>
        <mxCell id="F_4" value="核函数" style="rounded=0;whiteSpace=wrap;html=1;strokeWidth=2;" parent="1" vertex="1">
          <mxGeometry x="515.17004" y="48.280014" width="54" height="35.999992" as="geometry" />
        </mxCell>
        <mxCell id="Y_12" value="参数" style="ellipse;whiteSpace=wrap;html=1;strokeWidth=2;" parent="1" vertex="1">
          <mxGeometry x="506.54001" y="165.96001" width="54" height="36" as="geometry" />
        </mxCell>
        <mxCell id="E4" style="strokeWidth=2;startArrow=none;startFill=0;endArrow=none;endFill=0;" parent="1" source="F_4" target="Y_12" edge="1">
          <mxGeometry relative="1" as="geometry" />
        </mxCell>
        <mxCell id="L4" value="" style="edgeLabel;html=1;align=center;verticalAlign=middle;resizable=0;points=[];" parent="E4" vertex="1" connectable="0">
          <mxGeometry relative="1" as="geometry">
            <mxPoint as="offset" />
          </mxGeometry>
        </mxCell>
        <mxCell id="Y_11" value="核类型" style="ellipse;whiteSpace=wrap;html=1;strokeWidth=2;" parent="1" vertex="1">
          <mxGeometry x="624.97998" y="24.080002" width="65.519997" height="36" as="geometry" />
        </mxCell>
        <mxCell id="E5" style="strokeWidth=2;startArrow=none;startFill=0;endArrow=none;endFill=0;" parent="1" source="F_4" target="Y_11" edge="1">
          <mxGeometry relative="1" as="geometry" />
        </mxCell>
        <mxCell id="L5" value="" style="edgeLabel;html=1;align=center;verticalAlign=middle;resizable=0;points=[];" parent="E5" vertex="1" connectable="0">
          <mxGeometry relative="1" as="geometry">
            <mxPoint as="offset" />
          </mxGeometry>
        </mxCell>
        <mxCell id="E6" style="strokeWidth=2;startArrow=none;startFill=0;endArrow=none;endFill=0;" parent="1" source="F_4" edge="1">
          <mxGeometry relative="1" as="geometry" />
        </mxCell>
        <mxCell id="L6" value="" style="edgeLabel;html=1;align=center;verticalAlign=middle;resizable=0;points=[];" parent="E6" vertex="1" connectable="0">
          <mxGeometry relative="1" as="geometry">
            <mxPoint as="offset" />
          </mxGeometry>
        </mxCell>
        <mxCell id="F_2" value="超平面" style="rounded=0;whiteSpace=wrap;html=1;strokeWidth=2;" parent="1" vertex="1">
          <mxGeometry x="572.81" y="-141.68001" width="54" height="36" as="geometry" />
        </mxCell>
        <mxCell id="Y_8" value="方程" style="ellipse;whiteSpace=wrap;html=1;strokeWidth=2;" parent="1" vertex="1">
          <mxGeometry x="686.62" y="-159.34999" width="54" height="36" as="geometry" />
        </mxCell>
        <mxCell id="E7" style="strokeWidth=2;startArrow=none;startFill=0;endArrow=none;endFill=0;" parent="1" source="F_2" target="Y_8" edge="1">
          <mxGeometry relative="1" as="geometry" />
        </mxCell>
        <mxCell id="L7" value="" style="edgeLabel;html=1;align=center;verticalAlign=middle;resizable=0;points=[];" parent="E7" vertex="1" connectable="0">
          <mxGeometry relative="1" as="geometry">
            <mxPoint as="offset" />
          </mxGeometry>
        </mxCell>
        <mxCell id="Y_9" value="权重" style="ellipse;whiteSpace=wrap;html=1;strokeWidth=2;" parent="1" vertex="1">
          <mxGeometry x="531.92004" y="-34.039993" width="54" height="36" as="geometry" />
        </mxCell>
        <mxCell id="E8" style="strokeWidth=2;startArrow=none;startFill=0;endArrow=none;endFill=0;" parent="1" source="F_2" target="Y_9" edge="1">
          <mxGeometry relative="1" as="geometry" />
        </mxCell>
        <mxCell id="L8" value="" style="edgeLabel;html=1;align=center;verticalAlign=middle;resizable=0;points=[];" parent="E8" vertex="1" connectable="0">
          <mxGeometry relative="1" as="geometry">
            <mxPoint as="offset" />
          </mxGeometry>
        </mxCell>
        <mxCell id="优化" value="优化" style="rhombus;whiteSpace=wrap;html=1;strokeWidth=2;" parent="1" vertex="1">
          <mxGeometry x="492" y="-231.77" width="72.179993" height="36" as="geometry" />
        </mxCell>
        <mxCell id="E9" style="strokeWidth=2;startArrow=none;startFill=0;endArrow=none;endFill=0;" parent="1" source="F_2" edge="1">
          <mxGeometry relative="1" as="geometry" />
        </mxCell>
        <mxCell id="L9" value="" style="edgeLabel;html=1;align=center;verticalAlign=middle;resizable=0;points=[];" parent="E9" vertex="1" connectable="0">
          <mxGeometry relative="1" as="geometry">
            <mxPoint as="offset" />
          </mxGeometry>
        </mxCell>
        <mxCell id="F_5" value="间隔" style="rounded=0;whiteSpace=wrap;html=1;strokeWidth=2;" parent="1" vertex="1">
          <mxGeometry x="674.45001" y="-337.37" width="54" height="36.000031" as="geometry" />
        </mxCell>
        <mxCell id="Y_13" value="间隔宽度" style="ellipse;whiteSpace=wrap;html=1;strokeWidth=2;" parent="1" vertex="1">
          <mxGeometry x="729.33002" y="-422.04999" width="80.019997" height="36" as="geometry" />
        </mxCell>
        <mxCell id="E10" style="strokeWidth=2;startArrow=none;startFill=0;endArrow=none;endFill=0;" parent="1" source="F_5" target="Y_13" edge="1">
          <mxGeometry relative="1" as="geometry" />
        </mxCell>
        <mxCell id="L10" value="" style="edgeLabel;html=1;align=center;verticalAlign=middle;resizable=0;points=[];" parent="E10" vertex="1" connectable="0">
          <mxGeometry relative="1" as="geometry">
            <mxPoint as="offset" />
          </mxGeometry>
        </mxCell>
        <mxCell id="控制" value="控制" style="rhombus;whiteSpace=wrap;html=1;strokeWidth=2;" parent="1" vertex="1">
          <mxGeometry x="632" y="-234.03999" width="72.179993" height="36" as="geometry" />
        </mxCell>
        <mxCell id="E11" style="strokeWidth=2;startArrow=none;startFill=0;endArrow=none;endFill=0;" parent="1" source="F_5" edge="1">
          <mxGeometry relative="1" as="geometry" />
        </mxCell>
        <mxCell id="L11" value="" style="edgeLabel;html=1;align=center;verticalAlign=middle;resizable=0;points=[];" parent="E11" vertex="1" connectable="0">
          <mxGeometry relative="1" as="geometry">
            <mxPoint as="offset" />
          </mxGeometry>
        </mxCell>
        <mxCell id="Y_10" value="映射维度" style="ellipse;whiteSpace=wrap;html=1;strokeWidth=2;" parent="1" vertex="1">
          <mxGeometry x="452" y="-114.03999" width="80.019997" height="36" as="geometry" />
        </mxCell>
        <mxCell id="L_15" value="优化" style="rhombus;whiteSpace=wrap;html=1;strokeWidth=2;" parent="1" vertex="1">
          <mxGeometry x="612" y="105.96001" width="72.179993" height="36" as="geometry" />
        </mxCell>
        <mxCell id="L_16" value="影响" style="rhombus;whiteSpace=wrap;html=1;strokeWidth=2;" parent="1" vertex="1">
          <mxGeometry x="632" y="-54.039993" width="72.179993" height="36" as="geometry" />
        </mxCell>
        <mxCell id="L_17" value="控制" style="rhombus;whiteSpace=wrap;html=1;strokeWidth=2;" parent="1" vertex="1">
          <mxGeometry x="272" y="105.96001" width="72.179993" height="36" as="geometry" />
        </mxCell>
        <mxCell id="L_14" value="映射" style="rhombus;whiteSpace=wrap;html=1;strokeWidth=2;" parent="1" vertex="1">
          <mxGeometry x="392" y="125.96001" width="72.179993" height="36" as="geometry" />
        </mxCell>
        <mxCell id="L_18" value="计算" style="rhombus;whiteSpace=wrap;html=1;strokeWidth=2;" parent="1" vertex="1">
          <mxGeometry x="232" y="-154.03999" width="72.18" height="36" as="geometry" />
        </mxCell>
      </root>
    </mxGraphModel>
  </diagram>
</mxfile>
